Coordinates
version=1
nRows=22
nColumns=24
inDegrees=yes

Units are S.I. units (second, meters, Newtons, ...)
Angles are in degrees.

endheader
time	pelvis_tilt	pelvis_list	pelvis_rotation	pelvis_tx	pelvis_ty	pelvis_tz	hip_flexion_r	hip_adduction_r	hip_rotation_r	knee_angle_r	ankle_angle_r	subtalar_angle_r	mtp_angle_r	hip_flexion_l	hip_adduction_l	hip_rotation_l	knee_angle_l	ankle_angle_l	subtalar_angle_l	mtp_angle_l	lumbar_extension	lumbar_bending	lumbar_rotation
      5.67500000	     -1.46179020	     -0.28643666	     -2.35055049	      1.26432641	      1.03768690	     -0.19507520	     -4.53724399	      4.70975830	     13.45231264	     -5.29111763	     12.27653309	    -15.59269752	      0.00000000	     27.51301122	     -5.39757764	    -15.56649398	    -47.59476790	      8.95659284	     -2.56468053	      0.00000000	    -12.34724677	     -1.62807084	      4.83968767
      5.68000000	     -1.57996837	     -0.30363433	     -2.40742228	      1.26999736	      1.03724090	     -0.19543238	     -4.82849099	      4.68198260	     13.50369831	     -5.13581670	     12.29039206	    -15.65032374	      0.00000000	     27.67458365	     -5.27792109	    -15.59185168	    -45.96187478	      9.19089104	     -2.21755656	      0.00000000	    -12.23427761	     -1.62889452	      4.93292608
      5.68500000	     -1.55927052	     -0.27294375	     -2.57537615	      1.27573287	      1.03697585	     -0.19569652	     -5.28470839	      4.57670856	     13.80007064	     -4.95605721	     12.26335849	    -15.81538165	      0.00000000	     27.61242996	     -5.14401256	    -15.76590947	    -44.22063220	      9.34524663	     -1.99775752	      0.00000000	    -12.27558524	     -1.70085445	      5.15538002
      5.69000000	     -1.67761999	     -0.32251621	     -2.61933513	      1.28147962	      1.03640817	     -0.19611840	     -5.57429252	      4.57793890	     13.86214411	     -4.82036305	     12.30822185	    -15.85992110	      0.00000000	     27.71508086	     -5.03686269	    -15.75939338	    -42.48253154	      9.53063413	     -1.66929511	      0.00000000	    -12.15549439	     -1.65792240	      5.23895049
      5.69500000	     -1.66495326	     -0.32521812	     -2.76516550	      1.28729874	      1.03602127	     -0.19645312	     -6.01637742	      4.50401447	     14.09302171	     -4.66409329	     12.33348575	    -15.95168872	      0.00000000	     27.60329762	     -4.90955631	    -15.88697811	    -40.63507346	      9.63087266	     -1.47578934	      0.00000000	    -12.18378831	     -1.68913553	      5.42898527
      5.70000000	     -1.77838742	     -0.40953400	     -2.80274542	      1.29305831	      1.03537121	     -0.19693753	     -6.30473101	      4.53680186	     14.15181662	     -4.54721116	     12.37552959	    -15.97929573	      0.00000000	     27.64613127	     -4.81616841	    -15.82536699	    -38.79883824	      9.74048547	     -1.14590000	      0.00000000	    -12.08415579	     -1.59846817	      5.53283968
      5.70500000	     -1.71768470	     -0.43267445	     -2.92786569	      1.29896243	      1.03497547	     -0.19736808	     -6.80402386	      4.47282695	     14.34800120	     -4.39015235	     12.40135739	    -16.03022868	      0.00000000	     27.42070466	     -4.67964998	    -15.90674665	    -36.84284014	      9.75807667	     -0.95524423	      0.00000000	    -12.16723870	     -1.60047924	      5.70929697
      5.71000000	     -1.80970208	     -0.51480587	     -2.96310834	      1.30486119	      1.03428531	     -0.19793084	     -7.13077858	      4.48985693	     14.42927420	     -4.26112693	     12.44907559	    -16.03424836	      0.00000000	     27.37076043	     -4.56862636	    -15.83782763	    -34.90001338	      9.78605535	     -0.62176556	      0.00000000	    -12.07594932	     -1.50235528	      5.79299226
      5.71500000	     -1.84902921	     -0.58193473	     -3.03078156	      1.31079295	      1.03364946	     -0.19845287	     -7.50746756	      4.48407079	     14.54145359	     -4.14927494	     12.51665786	    -16.02504797	      0.00000000	     27.21983262	     -4.44059714	    -15.76627185	    -32.88733456	      9.73750990	     -0.35411881	      0.00000000	    -12.04184150	     -1.44297472	      5.91720908
      5.72000000	     -1.79443276	     -0.66546521	     -3.09434272	      1.31676884	      1.03310608	     -0.19905970	     -7.99015659	      4.48407936	     14.61835996	     -4.02754281	     12.55875303	    -16.00807505	      0.00000000	     26.93745205	     -4.31317234	    -15.68946954	    -30.82947774	      9.66933101	     -0.10930575	      0.00000000	    -12.13005426	     -1.35657517	      6.05869924
      5.72500000	     -1.82939169	     -0.76580839	     -3.13105101	      1.32277328	      1.03239567	     -0.19972670	     -8.37177507	      4.50708713	     14.68881162	     -3.92827765	     12.62105870	    -15.96040252	      0.00000000	     26.74044077	     -4.19159133	    -15.53168714	    -28.76517778	      9.55826300	      0.18653529	      0.00000000	    -12.10852005	     -1.23672047	      6.16390843
      5.73000000	     -1.80871605	     -0.87693028	     -3.16813545	      1.32878350	      1.03173325	     -0.20038740	     -8.80422408	      4.53930705	     14.73825943	     -3.84903027	     12.69642890	    -15.87399576	      0.00000000	     26.46289107	     -4.07628143	    -15.32765718	    -26.68048643	      9.39225096	      0.49116223	      0.00000000	    -12.15874471	     -1.11393021	      6.27729072
      5.73500000	     -1.89273058	     -1.00548257	     -3.20129244	      1.33486490	      1.03087641	     -0.20110435	     -9.12577209	      4.59033156	     14.82689861	     -3.78484344	     12.78909576	    -15.77732717	      0.00000000	     26.28310040	     -3.97539329	    -15.05826228	    -24.59765482	      9.19177487	      0.75898055	      0.00000000	    -12.06866753	     -0.95528209	      6.36572966
      5.74000000	     -1.82267165	     -1.11539876	     -3.21555644	      1.34103168	      1.03020908	     -0.20185416	     -9.60905661	      4.61688187	     14.79169527	     -3.72636113	     12.89551860	    -15.60598936	      0.00000000	     25.90851587	     -3.84041225	    -14.74959002	    -22.49064365	      8.96629692	      1.03290939	      0.00000000	    -12.16415771	     -0.83002466	      6.45631267
      5.74500000	     -1.90387068	     -1.28027101	     -3.26506162	      1.34715757	      1.02930204	     -0.20261546	     -9.91400058	      4.70061736	     14.87928526	     -3.71215485	     12.99000159	    -15.46247245	      0.00000000	     25.69467952	     -3.77837824	    -14.35982957	    -20.41816503	      8.67982738	      1.20608900	      0.00000000	    -12.08069130	     -0.62178362	      6.58658491
      5.75000000	     -1.88368548	     -1.40278290	     -3.27839637	      1.35344165	      1.02851018	     -0.20343793	    -10.33092867	      4.73960122	     14.81503530	     -3.69462880	     13.11140749	    -15.23971363	      0.00000000	     25.34059604	     -3.65197954	    -13.87966273	    -18.33012326	      8.34626510	      1.30763622	      0.00000000	    -12.10536544	     -0.47080775	      6.67324984
      5.75500000	     -1.91608646	     -1.59150832	     -3.33300250	      1.35962653	      1.02761523	     -0.20415288	    -10.66590658	      4.84792814	     14.89079419	     -3.73973150	     13.25434436	    -15.01074299	      0.00000000	     25.05028938	     -3.63013987	    -13.33581329	    -16.31150711	      7.97629807	      1.37535253	      0.00000000	    -12.08210125	     -0.25796750	      6.79930236
      5.76000000	     -1.83535467	     -1.68960830	     -3.30321846	      1.36605163	      1.02684425	     -0.20505703	    -11.13048709	      4.86184951	     14.72593807	     -3.77130872	     13.45919551	    -14.65009670	      0.00000000	     24.60097090	     -3.47071368	    -12.64160640	    -14.27263822	      7.52910712	      1.28731663	      0.00000000	    -12.16406997	     -0.13203253	      6.82264334
      5.76500000	     -1.82383742	     -1.85622324	     -3.34324656	      1.37240906	      1.02597364	     -0.20583253	    -11.49332693	      4.94552586	     14.68871976	     -3.86711416	     13.64256161	    -14.30405356	      0.00000000	     24.22072098	     -3.42943725	    -11.89653672	    -12.30321189	      7.03662417	      1.05960713	      0.00000000	    -12.17681732	      0.06018041	      6.93355062
      5.77000000	     -1.81816776	     -2.03468468	     -3.39190519	      1.37882347	      1.02508889	     -0.20658887	    -11.83590666	      5.04342741	     14.62496927	     -3.99565382	     13.80924628	    -13.93839229	      0.00000000	     23.83147682	     -3.41806974	    -11.06691787	    -10.38581579	      6.49123531	      0.67500688	      0.00000000	    -12.17767963	      0.26391051	      7.06460789
      5.77500000	     -1.78626969	     -2.20898394	     -3.41938002	      1.38527499	      1.02421065	     -0.20734020	    -12.19105626	      5.14037529	     14.53759587	     -4.16411018	     14.02965090	    -13.50389275	      0.00000000	     23.40520074	     -3.41425452	    -10.10833141	     -8.53349773	      5.89217146	      0.15429118	      0.00000000	    -12.20904006	      0.45659533	      7.15288870
      5.78000000	     -1.75648328	     -2.39570179	     -3.46073089	      1.39175959	      1.02332698	     -0.20804156	    -12.52615486	      5.25129558	     14.44532811	     -4.37294926	     14.24857159	    -13.03945497	      0.00000000	     22.97538555	     -3.45330847	     -9.09367617	     -6.76576146	      5.26156569	     -0.49455693	      0.00000000	    -12.23746560	      0.65797194	      7.26004686
